<svg xmlns="http://www.w3.org/2000/svg" fill="none" viewBox="0 0 48 48" height="48" width="48" id="Disable-Heart--Streamline-Plump.svg"><desc>Disable Heart Streamline Icon: https://streamlinehq.com</desc><g id="disable-heart"><path id="Union" fill="#000000" fill-rule="evenodd" d="M1.2543 2.2995C2.2745 1.2794 3.9285 1.2794 4.9486 2.2995L8.6355 5.9865C13.3074 3.8153 19.1087 4.2032 23.4639 8.0322C23.6449 8.1905 23.8247 8.3605 24 8.5334C24.1753 8.3604 24.3551 8.1905 24.5361 8.0322C32.3468 1.1653 44.8084 5.3661 47.0653 15.5461C48.623 22.1779 45.9853 27.8418 42.0939 32.4751C41.0462 33.7225 39.8947 34.9111 38.6898 36.0407L44.6553 42.0061C45.6754 43.0263 45.6754 44.6804 44.6553 45.7005C43.6351 46.7207 41.981 46.7207 40.9609 45.7005L1.2543 5.9938C0.2341 4.9737 0.2341 3.3197 1.2543 2.2995ZM2.5099 11.5187C1.8013 12.7258 1.2612 14.0733 0.9347 15.5461C-0.623 22.1778 2.0147 27.8417 5.9061 32.475C9.7676 37.0727 15.0397 40.8706 19.1914 43.8616L19.2202 43.8823C22.0672 45.9333 25.9328 45.9333 28.7798 43.8823L28.8086 43.8616C29.91 43.0681 31.0902 42.2178 32.3021 41.3109L2.5099 11.5187Z" clip-rule="evenodd" stroke-width="1"></path></g></svg>