<svg width="400" height="281" xmlns="http://www.w3.org/2000/svg" xml:space="preserve" enable-background="new 0 0 1024 1024" version="1.1">

 <g>
  <title>Layer 1</title>
  <path id="svg_1" d="m335.1511,95.24678c-0.00287,25.82925 0.11578,51.15936 -0.05756,76.48749c-0.09741,14.24194 -3.34216,27.45086 -14.44495,37.54651c-8.47827,7.7091 -18.75671,11.55157 -29.87054,12.67852c-14.49085,1.46943 -28.94324,1.12244 -42.91339,-4.00939c-18.52008,-6.80317 -27.5564,-20.43769 -29.25031,-39.66626c-0.68896,-7.82129 -0.62457,-15.63886 -0.70318,-23.46543c-0.05451,-5.42325 -1.02253,-6.29135 -6.52313,-6.09765c-3.8266,0.13473 -7.68201,0.63186 -11.47175,0.32168c-4.37152,-0.35782 -5.71203,0.98783 -5.67901,5.49494c0.20257,27.6607 0.10577,55.32366 0.08667,82.9859c-0.00287,4.16833 0.18909,8.3031 0.69928,12.45538c1.69684,13.81091 9.62787,19.47528 23.28692,16.57245c2.42164,-0.51465 4.84314,-2.25275 7.46021,-0.8031c0.24377,2.35669 -1.39716,2.67035 -2.79193,3.08209c-10.34149,3.05267 -20.84699,4.42792 -31.51575,2.17261c-14.08929,-2.9784 -21.38257,-11.82001 -22.90515,-26.53363c-0.87848,-8.48944 -0.70389,-16.96607 -0.724,-25.45313c-0.0506,-21.32977 -0.11468,-42.66058 0.05859,-63.98904c0.03434,-4.22449 -1.20095,-6.30048 -5.57812,-6.07001c-2.15189,0.11325 -4.31452,0.00546 -6.47125,0.04926c-1.80857,0.03668 -3.66358,0.26943 -4.84275,-1.89908c1.26832,-2.62418 3.68824,-1.8678 5.66053,-2.01996c10.79028,-0.83246 20.73495,-3.38031 27.57025,-12.7789c2.99875,-4.12326 4.63251,-8.81299 6.12497,-13.59464c0.45849,-1.46887 0.14429,-3.51892 2.60986,-3.73211c2.08984,1.13199 1.3028,3.18304 1.3255,4.85827c0.09247,6.831 0.19733,13.66864 -0.01373,20.49418c-0.11646,3.76388 1.36175,5.02529 4.99127,4.86404c4.8233,-0.2143 9.66406,-0.13547 14.49481,-0.04697c2.99451,0.05484 4.15534,-1.28619 4.14795,-4.21814c-0.05878,-23.32892 0.06494,-46.65902 -0.13714,-69.98645c-0.06727,-7.75952 -4.72705,-11.63076 -13.45411,-12.41388c-2.35937,-0.2117 -5.00122,0.74192 -7.26526,-1.43402c0.79621,-2.36218 2.79725,-1.99399 4.46503,-1.99707c20.49658,-0.03799 40.99323,-0.04489 61.48981,-0.0115c1.55798,0.00253 3.43683,-0.50098 4.36542,1.61941c-0.95587,2.65021 -3.29267,1.68643 -5.07788,1.76767c-11.45673,0.52139 -16.04017,5.10425 -16.04737,16.41257c-0.02197,34.49444 -0.00604,68.98892 0.0094,103.48337c0.00287,6.37078 0.95819,12.62628 3.02686,18.63739c3.48944,10.13964 10.05194,17.11212 20.87475,19.4906c12.5661,2.76166 24.98969,2.15936 36.74793,-3.00849c17.28509,-7.59686 24.36761,-22.21325 24.58545,-40.1441c0.40277,-33.15646 0.18066,-66.32138 0.09045,-99.48245c-0.02728,-10.04642 -4.78589,-14.56012 -15.16394,-15.34821c-2.4375,-0.18506 -5.36999,1.10074 -7.31598,-1.68912c3.83136,-2.59744 44.01892,-2.58777 47.69965,-0.0365c-1.07562,2.53199 -3.36627,1.65091 -5.18012,1.7107c-12.40191,0.40887 -16.42627,4.43973 -16.48291,16.75027c-0.0299,6.49784 0.00391,12.99594 0.00965,19.99393z" fill="#000000"/>
  <path id="svg_2" d="m82.24654,202.66574c9.11713,12.48511 26.47913,12.6369 37.64182,8.52222c11.74237,-4.32843 17.75644,-14.62177 18.23496,-28.83215c0.47204,-14.01764 -6.09626,-23.55469 -17.84797,-29.91248c-11.71365,-6.33716 -23.7268,-12.11822 -35.50781,-18.33432c-6.66919,-3.51889 -12.4461,-8.22 -17.63727,-13.77505c-15.89734,-17.01166 -16.32107,-58.21839 17.95261,-69.39066c17.27557,-5.63138 34.82791,-5.6589 51.81991,1.50912c8.18656,3.45344 15.15897,8.65873 17.21927,18.10728c2.87992,13.20715 -8.84057,19.86721 -19.07556,19.76599c-2.7174,-0.02689 -2.78518,-2.50321 -2.78638,-4.5127c-0.00341,-5.6987 -0.75558,-11.2807 -2.22241,-16.78317c-3.4403,-12.9057 -12.11547,-19.05429 -25.52429,-18.04901c-13.81824,1.03601 -23.15075,9.28491 -24.87955,21.70498c-2.38909,17.16358 2.86487,30.3097 18.79667,38.75824c9.43762,5.0047 19.22595,9.20716 28.78109,13.92508c5.53617,2.73355 10.8071,5.90036 15.97739,9.27924c25.95212,16.96039 22.90228,58.75989 -1.89197,72.94714c-22.75006,13.01758 -46.84402,13.28217 -70.48511,2.38605c-10.52267,-4.84973 -17.04714,-13.78827 -16.80545,-26.25757c0.18766,-9.68134 6.55695,-16.3053 16.13038,-17.09503c3.63745,-0.30017 4.25857,1.91461 4.24762,4.64911c-0.02216,5.5238 0.71548,10.94794 1.74761,16.35541c1.01279,5.30597 2.91022,10.23822 6.11444,15.03228z" fill="#000000"/>
 </g>
</svg>